<svg width="474" height="3978" viewBox="0 0 474 3978" fill="none" xmlns="http://www.w3.org/2000/svg">
<g clip-path="url(#clip0_656_139)">
<rect width="474" height="3978" fill="white"/>
<path d="M317.166 982.81C236.396 1127.52 53.6362 1179.37 -91.0399 1098.62C-235.716 1017.87 -287.522 835.102 -206.753 690.39C-155.948 599.364 39.9168 502.625 78.6318 598.772C101.466 655.48 -49.5701 898.203 4.10319 928.16C148.779 1008.91 397.936 838.098 317.166 982.81Z" fill="#ED694D" fill-opacity="0.15"/>
<path d="M94.6352 1736.16C293.596 1723.92 462.641 1840.07 472.208 1995.59C481.775 2151.11 328.242 2287.11 129.281 2299.35C4.1322 2307.05 -219.033 2204.06 -145.552 2123.53C-102.213 2076.04 241.391 2067.71 237.841 2010.01C228.274 1854.49 -104.326 1748.4 94.6352 1736.16Z" fill="#0058FF" fill-opacity="0.15"/>
</g>
<defs>
<clipPath id="clip0_656_139">
<rect width="474" height="3978" fill="white"/>
</clipPath>
</defs>
</svg>
