<svg width="1512" height="4632" viewBox="0 0 1512 4632" fill="none" xmlns="http://www.w3.org/2000/svg">
<g clip-path="url(#clip0_636_133)">
<rect width="1512" height="4632" fill="white"/>
<path d="M802.554 1645.79C642.377 1949.11 279.598 2071.99 -7.73611 1920.25C-295.07 1768.52 -398.151 1399.62 -237.974 1096.31C-137.221 905.516 251.52 689.655 328.502 882.652C373.906 996.482 74.3474 1506.67 180.945 1562.96C468.279 1714.7 962.731 1342.48 802.554 1645.79Z" fill="#ED694D" fill-opacity="0.15"/>
<circle cx="1382.5" cy="2188.5" r="41.5" stroke="#0058FF" stroke-opacity="0.2" stroke-width="30"/>
<path d="M151.677 3705.84C-268.986 3529.24 -474.381 3063.04 -307.088 2664.54C-139.794 2266.04 336.838 2086.16 757.501 2262.76C1022.1 2373.84 1353.73 2863.53 1107.08 2988.18C961.598 3061.7 250.498 2724.73 188.433 2872.57C21.1398 3271.06 572.339 3882.44 151.677 3705.84Z" fill="#0058FF" fill-opacity="0.15"/>
</g>
<defs>
<clipPath id="clip0_636_133">
<rect width="1512" height="4632" fill="white"/>
</clipPath>
</defs>
</svg>
